# xmcd
#
# Track frame offsets: 
#        150
#        668
#        17296
#        36114
#        39542
#        56410
#        74335
#        90543
#        104501
#        122606
#        126679
#        133902
#        147132
#        150507
#        176990
#        199265
#        204913
#        220843
#        242571
#
# Disc length: 3584 seconds
#
# Revision: 0
# Processed by: cddbd v1.5.2PL0 Copyright (c) Steve Scherf et al.
# Submitted via: ExactAudioCopy v0.99pb4
#
DISCID=0d0dfe13
DTITLE=Childish Gambino - Because the Internet [vinyl rip]
DYEAR=2013
DGENRE=Hip-Hop
TTITLE0=The Library - Intro
TTITLE1=I. Crawl
TTITLE2=II. Worldstar
TTITLE3=Dial Up
TTITLE4=I. The Worst Guys feat. Chance the Rapper
TTITLE5=II. Shadows
TTITLE6=III. Telegraph Ave.
TTITLE7=IV. Sweatpants feat. Problem
TTITLE8=V. 3005
TTITLE9=Playing Around Before the Party Starts
TTITLE10=I. The Party
TTITLE11=II. No Exit
TTITLE12=Death By Numbers
TTITLE13=I. Flight of the Navigator
TTITLE14=II. Zealots of Stockholm [Free Information]
TTITLE15=III. Urn
TTITLE16=Pink Toes
TTITLE17=Earth - The Oldest Computer (The Last Night) feat. Azealia Ba
TTITLE17=nks
TTITLE18=Life - The Biggest Troll (Andrew Auernheimer) feat. Donald Gl
TTITLE18=over
EXTD=
EXTT0=
EXTT1=
EXTT2=
EXTT3=
EXTT4=
EXTT5=
EXTT6=
EXTT7=
EXTT8=
EXTT9=
EXTT10=
EXTT11=
EXTT12=
EXTT13=
EXTT14=
EXTT15=
EXTT16=
EXTT17=
EXTT18=
PLAYORDER=
